<svg width="120" height="92" viewBox="0 0 120 92" fill="none" xmlns="http://www.w3.org/2000/svg">
<path d="M101.188 7.8125C93.5 4.25 85.3125 1.625 76.6875 0.125C75.625 2 74.375 4.5625 73.5625 6.625C64.4375 5.25 55.375 5.25 46.4375 6.625C45.5625 4.5625 44.3125 2 43.25 0.125C34.625 1.625 26.4375 4.25 18.75 7.8125C3.25 31.1875 -0.937503 54 1.125 76.4375C11.4375 84.125 21.375 88.75 31.1875 91.8125C33.625 88.5 35.75 84.9375 37.625 81.25C34.0625 79.9375 30.6875 78.25 27.5 76.3125C28.375 75.6875 29.1875 75 30 74.375C49.5625 83.5 70.75 83.5 90.0625 74.375C90.875 75.0625 91.6875 75.6875 92.5625 76.3125C89.375 78.25 85.9375 79.875 82.4375 81.25C84.3125 84.9375 86.4375 88.5 88.875 91.8125C98.6875 88.75 108.688 84.125 118.938 76.4375C121.375 50.375 114.75 27.8125 101.313 7.8125H101.188ZM40.25 62.6875C34.375 62.6875 29.5625 57.25 29.5625 50.5625C29.5625 43.875 34.25 38.4375 40.25 38.4375C46.25 38.4375 51 43.875 50.9375 50.5625C50.9375 57.1875 46.25 62.6875 40.25 62.6875ZM79.6875 62.6875C73.8125 62.6875 69 57.25 69 50.5625C69 43.875 73.6875 38.4375 79.6875 38.4375C85.6875 38.4375 90.4375 43.875 90.375 50.5625C90.375 57.1875 85.6875 62.6875 79.6875 62.6875Z" fill="black"/>
</svg>
