<svg width="99" height="100" viewBox="0 0 99 100" fill="none" xmlns="http://www.w3.org/2000/svg">
<path d="M98.5 42.3125L97.9375 40.125H51.4375V59.875H79.25C77.6981 65.9015 74.1699 71.2335 69.2297 75.018C64.2895 78.8024 58.2228 80.8207 52 80.75C43.8802 80.6829 36.0784 77.5845 30.125 72.0625C27.1984 69.1779 24.8695 65.7444 23.2716 61.9587C21.6736 58.1729 20.838 54.1091 20.8125 50C20.907 41.7467 24.1745 33.8463 29.9375 27.9375C35.8069 22.3772 43.6028 19.3081 51.6875 19.375C58.6117 19.4283 65.2786 22.0061 70.4375 26.625L84.1875 12.5C75.1251 4.41469 63.3948 -0.0370198 51.25 -1.76019e-05C44.569 -0.0397105 37.9456 1.23693 31.758 3.75702C25.5703 6.27711 19.9397 9.99129 15.1875 14.6875C6.14812 24.0767 1.05168 36.5737 0.947048 49.6067C0.842412 62.6396 5.73754 75.2168 14.625 84.75C19.5491 89.6557 25.4014 93.531 31.8401 96.1494C38.2788 98.7678 45.1747 100.077 52.125 100C58.4278 100.047 64.6745 98.8135 70.4866 96.3748C76.2987 93.9361 81.5552 90.3427 85.9375 85.8125C94.5371 76.3567 99.189 63.9665 98.9375 51.1875C99.005 48.2225 98.8588 45.2565 98.5 42.3125Z" fill="black"/>
</svg>
