<svg width="100" height="100" viewBox="0 0 100 100" fill="none" xmlns="http://www.w3.org/2000/svg">
<path d="M50 0C40.1109 0 30.4439 2.93245 22.2215 8.42652C13.999 13.9206 7.5904 21.7295 3.80602 30.8658C0.0216412 40.0021 -0.968525 50.0555 0.960735 59.7545C2.89 69.4536 7.65203 78.3627 14.6447 85.3553C21.6373 92.348 30.5464 97.11 40.2455 99.0393C49.9445 100.969 59.9979 99.9784 69.1342 96.194C78.2705 92.4096 86.0794 86.001 91.5735 77.7785C97.0675 69.556 100 59.8891 100 50C100 36.7392 94.7322 24.0215 85.3553 14.6447C75.9785 5.26784 63.2608 0 50 0ZM74.5625 34.25L66.375 72.9375C65.75 75.6875 64.125 76.3125 61.8125 75.0625L49.3125 65.8125L43.0625 71.625C42.7681 72.0096 42.39 72.322 41.9568 72.5386C41.5236 72.7552 41.0468 72.8703 40.5625 72.875L41.4375 60.375L64.5625 39.4375C65.625 38.5625 64.5625 38.0625 63.0625 38.9375L34.6875 56.75L22.1875 52.875C19.5 52.0625 19.4375 50.1875 22.75 48.9375L70.9375 30.1875C73.3125 29.5 75.3125 30.875 74.5625 34.25Z" fill="black"/>
</svg>
