<svg width="142" height="94" viewBox="0 0 142 94" fill="none" xmlns="http://www.w3.org/2000/svg">
<path d="M137.927 6.48242C138.891 2.82031 137.927 0.125 133.292 0.125H117.953C114.047 0.125 112.25 2.43945 111.286 5.01758C111.286 5.01758 103.474 26.4336 92.4323 40.3203C88.8646 44.334 87.224 45.623 85.2708 45.623C84.3073 45.623 82.8229 44.334 82.8229 40.6719V6.48242C82.8229 2.08789 81.7292 0.125 78.5 0.125H54.3854C51.9375 0.125 50.4792 2.17578 50.4792 4.08008C50.4792 8.24023 56 9.20703 56.5729 20.9258V46.3555C56.5729 51.9219 55.6875 52.9473 53.7344 52.9473C48.526 52.9473 35.8698 31.4434 28.3698 6.83398C26.8594 2.05859 25.375 0.125 21.4427 0.125H6.10417C1.72917 0.125 0.84375 2.43945 0.84375 5.01758C0.84375 9.58789 6.05208 32.293 25.0885 62.293C37.7708 82.7715 55.6354 93.875 71.8854 93.875C81.651 93.875 82.849 91.4141 82.849 87.166C82.849 67.5957 81.9635 65.75 86.8594 65.75C89.125 65.75 93.0313 67.0391 102.146 76.9121C112.563 88.6309 114.281 93.875 120.115 93.875H135.453C139.828 93.875 142.042 91.4141 140.766 86.5508C137.849 76.3262 118.135 55.291 117.25 53.8848C114.984 50.6035 115.635 49.1387 117.25 46.209C117.276 46.1797 136 16.5312 137.927 6.48242Z" fill="black"/>
</svg>
