<svg width="100" height="72" viewBox="0 0 100 72" fill="none" xmlns="http://www.w3.org/2000/svg">
<path d="M97.9375 11.875C97.3817 9.73302 96.2672 7.77697 94.708 6.20673C93.1487 4.63648 91.2005 3.50831 89.0625 2.9375C76.0997 1.40866 63.0517 0.719722 50 0.875001C36.9483 0.719722 23.9002 1.40866 10.9375 2.9375C8.79946 3.50831 6.85128 4.63648 5.29202 6.20673C3.73275 7.77697 2.61828 9.73302 2.06249 11.875C0.642547 19.8372 -0.047815 27.9123 -1.12425e-05 36C-0.0502083 44.1292 0.640143 52.2461 2.06249 60.25C2.64708 62.3574 3.77435 64.2746 5.33171 65.81C6.88907 67.3454 8.82201 68.4454 10.9375 69C23.9002 70.5288 36.9483 71.2178 50 71.0625C63.0517 71.2178 76.0997 70.5288 89.0625 69C91.178 68.4454 93.1109 67.3454 94.6683 65.81C96.2256 64.2746 97.3529 62.3574 97.9375 60.25C99.3598 52.2461 100.05 44.1292 100 36C100.048 27.9123 99.3574 19.8372 97.9375 11.875ZM39.75 50.9375V21.1875L65.9375 36L39.75 50.875V50.9375Z" fill="black"/>
</svg>
